<svg aria-hidden="true" style="position: absolute; width: 0; height: 0; overflow: hidden;" version="1.1"
     xmlns="http://www.w3.org/2000/svg" xmlns:xlink="http://www.w3.org/1999/xlink">
  <defs>
    <symbol id="icon-petrol" viewBox="0 0 32 32">
      <path
        d="M6 5c0-0.265 0.105-0.52 0.293-0.707s0.442-0.293 0.707-0.293h10c0.265 0 0.52 0.105 0.707 0.293s0.293 0.442 0.293 0.707v10c0 0.265-0.105 0.52-0.293 0.707s-0.442 0.293-0.707 0.293h-10c-0.265 0-0.52-0.105-0.707-0.293s-0.293-0.442-0.293-0.707v-10z"></path>
      <path
        d="M2 4c0-1.061 0.421-2.078 1.172-2.828s1.768-1.172 2.828-1.172h12c1.061 0 2.078 0.421 2.828 1.172s1.172 1.768 1.172 2.828v16c1.061 0 2.078 0.421 2.828 1.172s1.172 1.768 1.172 2.828v1c0 0.265 0.105 0.52 0.293 0.707s0.442 0.293 0.707 0.293 0.52-0.105 0.707-0.293c0.188-0.188 0.293-0.442 0.293-0.707v-9h-1c-0.265 0-0.52-0.105-0.707-0.293s-0.293-0.442-0.293-0.707v-6.25c0-0.265 0.105-0.52 0.293-0.707s0.442-0.293 0.707-0.293h2.99c-0.022-0.952-0.106-1.788-0.402-2.444-0.158-0.381-0.435-0.702-0.788-0.916-0.368-0.22-0.928-0.39-1.8-0.39-0.265 0-0.52-0.105-0.707-0.293s-0.293-0.442-0.293-0.707 0.105-0.52 0.293-0.707c0.188-0.188 0.442-0.293 0.707-0.293 1.128-0.003 2.069 0.221 2.824 0.672 0.766 0.456 1.268 1.102 1.588 1.814 0.59 1.31 0.588 2.93 0.588 4.162v6.35c0 0.132-0.025 0.262-0.076 0.383s-0.124 0.232-0.217 0.325c-0.093 0.093-0.203 0.167-0.325 0.217s-0.252 0.076-0.383 0.076h-1v9c0 0.796-0.316 1.559-0.879 2.121s-1.326 0.879-2.121 0.879-1.559-0.316-2.121-0.879c-0.563-0.563-0.879-1.326-0.879-2.121v-1c0-0.53-0.211-1.039-0.586-1.414s-0.884-0.586-1.414-0.586v8h1c0.265 0 0.52 0.105 0.707 0.293s0.293 0.442 0.293 0.707-0.105 0.52-0.293 0.707c-0.188 0.188-0.442 0.293-0.707 0.293h-22c-0.265 0-0.52-0.105-0.707-0.293s-0.293-0.442-0.293-0.707 0.105-0.52 0.293-0.707c0.188-0.188 0.442-0.293 0.707-0.293h1v-26zM20 4c0-0.53-0.211-1.039-0.586-1.414s-0.884-0.586-1.414-0.586h-12c-0.53 0-1.039 0.211-1.414 0.586s-0.586 0.884-0.586 1.414v26h16v-26z"></path>
    </symbol>
    <symbol id="icon-radio" viewBox="0 0 34 32">
      <path
        d="M15.556 3.333c0-0.295 0.117-0.577 0.325-0.786s0.491-0.325 0.786-0.325h15.556c0.295 0 0.577 0.117 0.786 0.325s0.325 0.491 0.325 0.786v2.222c0 0.295-0.117 0.577-0.325 0.786s-0.491 0.325-0.786 0.325h-15.556c-0.295 0-0.577-0.117-0.786-0.325s-0.325-0.491-0.325-0.786v-2.222zM0 24.444c0-1.768 0.702-3.464 1.953-4.714s2.946-1.953 4.714-1.953 3.464 0.702 4.714 1.953c1.25 1.25 1.953 2.946 1.953 4.714s-0.702 3.464-1.953 4.714c-1.25 1.25-2.946 1.953-4.714 1.953s-3.464-0.702-4.714-1.953c-1.25-1.25-1.953-2.946-1.953-4.714zM15.556 21.111c0-0.295 0.117-0.577 0.325-0.786s0.491-0.326 0.786-0.326h15.556c0.295 0 0.577 0.117 0.786 0.326s0.325 0.491 0.325 0.786v2.222c0 0.295-0.117 0.577-0.325 0.786s-0.491 0.326-0.786 0.326h-15.556c-0.295 0-0.577-0.117-0.786-0.326s-0.325-0.491-0.325-0.786v-2.222zM15.556 10c0-0.295 0.117-0.577 0.325-0.786s0.491-0.325 0.786-0.325h11.111c0.295 0 0.577 0.117 0.786 0.325s0.326 0.491 0.326 0.786-0.117 0.577-0.326 0.786c-0.208 0.208-0.491 0.325-0.786 0.325h-11.111c-0.295 0-0.577-0.117-0.786-0.325s-0.325-0.491-0.325-0.786zM15.556 27.778c0-0.295 0.117-0.577 0.325-0.786s0.491-0.326 0.786-0.326h11.111c0.295 0 0.577 0.117 0.786 0.326s0.326 0.491 0.326 0.786-0.117 0.577-0.326 0.786c-0.208 0.209-0.491 0.326-0.786 0.326h-11.111c-0.295 0-0.577-0.117-0.786-0.326s-0.325-0.491-0.325-0.786zM6.667 0c-0.875 0-1.742 0.172-2.551 0.507s-1.544 0.826-2.163 1.445c-0.619 0.619-1.11 1.354-1.445 2.163s-0.507 1.676-0.507 2.551c0 0.875 0.172 1.742 0.507 2.551s0.826 1.544 1.445 2.163c0.619 0.619 1.354 1.11 2.163 1.445s1.676 0.507 2.551 0.507c1.768 0 3.464-0.702 4.714-1.953s1.953-2.946 1.953-4.714c0-1.768-0.702-3.464-1.953-4.714s-2.946-1.953-4.714-1.953zM6.667 10c-0.884 0-1.732-0.351-2.357-0.976s-0.976-1.473-0.976-2.357c0-0.884 0.351-1.732 0.976-2.357s1.473-0.976 2.357-0.976c0.884 0 1.732 0.351 2.357 0.976s0.976 1.473 0.976 2.357c0 0.884-0.351 1.732-0.976 2.357s-1.473 0.976-2.357 0.976z"></path>
    </symbol>
    <symbol id="icon-map" viewBox="0 0 32 32">
      <path
        d="M31.634 0.226c0.115 0.094 0.207 0.212 0.27 0.346s0.096 0.28 0.096 0.428v28c-0 0.231-0.080 0.455-0.227 0.634s-0.351 0.301-0.577 0.346l-10 2c-0.129 0.026-0.263 0.026-0.392 0l-9.804-1.96-9.804 1.96c-0.145 0.029-0.295 0.025-0.438-0.010s-0.277-0.103-0.392-0.197c-0.114-0.094-0.207-0.212-0.27-0.345s-0.096-0.28-0.096-0.428v-28c0-0.231 0.080-0.455 0.227-0.634s0.351-0.301 0.577-0.346l10-2c0.129-0.026 0.263-0.026 0.392 0l9.804 1.96 9.804-1.96c0.145-0.029 0.295-0.026 0.438 0.010s0.277 0.103 0.392 0.196zM20 3.82l-8-1.6v25.96l8 1.6v-25.96zM22 29.78l8-1.6v-25.96l-8 1.6v25.96zM10 28.18v-25.96l-8 1.6v25.96l8-1.6z"></path>
    </symbol>
    <symbol id="icon-Rating" viewBox="0 0 32 32">
      <path
            d="M14.182 1.636c0.4-0.759 1.487-0.759 1.887 0l4.028 7.635c0.154 0.293 0.436 0.497 0.762 0.553l8.506 1.472c0.845 0.146 1.181 1.179 0.583 1.794l-6.017 6.19c-0.23 0.237-0.338 0.568-0.291 0.895l1.229 8.544c0.122 0.849-0.757 1.488-1.526 1.109l-7.747-3.809c-0.297-0.146-0.645-0.146-0.941 0l-7.747 3.809c-0.77 0.378-1.649-0.26-1.526-1.109l1.229-8.544c0.047-0.327-0.060-0.658-0.291-0.895l-6.016-6.19c-0.598-0.615-0.262-1.648 0.583-1.794l8.506-1.472c0.326-0.056 0.607-0.261 0.762-0.553l4.028-7.635z"></path>
    </symbol>
    <symbol id="icon-heart" viewBox="0 0 32 32">
      <path
        d="M16 12.472l-1.788-3.578c-0.444-0.886-1.214-2.16-2.304-3.19-1.072-1.014-2.356-1.704-3.908-1.704-3.352 0-6 2.652-6 5.84 0 2.422 1.108 4.132 3.736 6.74 0.674 0.668 1.442 1.39 2.292 2.186 2.216 2.080 4.972 4.668 7.972 8.128 3-3.46 5.756-6.048 7.972-8.128 0.85-0.796 1.62-1.52 2.292-2.186 2.628-2.608 3.736-4.318 3.736-6.74 0-3.188-2.648-5.84-6-5.84-1.554 0-2.836 0.69-3.908 1.704-1.090 1.030-1.86 2.304-2.304 3.19l-1.788 3.578zM16.784 29.056c-0.096 0.114-0.216 0.206-0.352 0.269s-0.283 0.095-0.432 0.095-0.297-0.033-0.432-0.095c-0.135-0.063-0.255-0.155-0.352-0.269-3.202-3.804-6.1-6.524-8.486-8.762-4.13-3.878-6.73-6.316-6.73-10.454 0-4.33 3.58-7.84 8-7.84 3.2 0 5.438 2.1 6.808 4.016 0.52 0.73 0.916 1.432 1.192 1.984 0.346-0.691 0.745-1.354 1.192-1.984 1.37-1.918 3.608-4.016 6.808-4.016 4.42 0 8 3.51 8 7.84 0 4.138-2.6 6.576-6.73 10.454-2.386 2.24-5.284 4.962-8.486 8.762z"></path>
    </symbol>
    <symbol id="icon-water" viewBox="0 0 32 32">
      <path stroke-linejoin="miter" stroke-linecap="butt" stroke-miterlimit="10" stroke-width="2.2857"
            d="M26.286 20.005c0 6.312-3.974 10.286-10.286 10.286s-10.286-3.974-10.286-10.286c0-6.774 7.374-15.918 9.635-18.563 0.080-0.094 0.18-0.169 0.293-0.221s0.235-0.079 0.358-0.079c0.124 0 0.246 0.027 0.358 0.079s0.212 0.127 0.293 0.221c2.261 2.645 9.634 11.789 9.634 18.563z"></path>
    </symbol>
    <symbol id="icon-gas-stove" viewBox="0 0 32 32">
      <path stroke-linejoin="round" stroke-linecap="round" stroke-miterlimit="4" stroke-width="2.56"
            d="M6.969 25.458h5.689M24.036 25.471v-0.013M1.28 6.969c0-4.708 0.981-5.689 5.689-5.689h17.067c4.708 0 5.689 0.981 5.689 5.689v17.067c0 4.708-0.981 5.689-5.689 5.689h-17.067c-4.708 0-5.689-0.981-5.689-5.689v-17.067z"></path>
      <path stroke-linejoin="round" stroke-linecap="round" stroke-miterlimit="4" stroke-width="2.56"
            d="M15.502 18.347c3.142 0 5.689-2.547 5.689-5.689s-2.547-5.689-5.689-5.689-5.689 2.547-5.689 5.689c0 3.142 2.547 5.689 5.689 5.689z"></path>
      <path stroke-linejoin="round" stroke-linecap="round" stroke-miterlimit="4" stroke-width="2.56"
            d="M20.48 12.658h2.133M15.502 17.636v2.133M10.524 12.658h-2.133M15.502 7.68v-2.133"></path>
    </symbol>
    <symbol id="icon-microwave" viewBox="0 0 32 32">
      <path stroke-linejoin="round" stroke-linecap="round" stroke-miterlimit="4" stroke-width="2.2069"
            d="M27.586 3.31h-23.54c-1.625 0-2.943 1.317-2.943 2.943v16.184c0 1.625 1.317 2.943 2.943 2.943h23.54c1.625 0 2.943-1.317 2.943-2.943v-16.184c0-1.625-1.317-2.943-2.943-2.943z"></path>
      <path stroke-linejoin="round" stroke-linecap="round" stroke-miterlimit="4" stroke-width="2.2069"
            d="M17.287 9.195h-8.828c-0.813 0-1.471 0.659-1.471 1.471v7.356c0 0.813 0.659 1.471 1.471 1.471h8.828c0.812 0 1.471-0.659 1.471-1.471v-7.356c0-0.813-0.659-1.471-1.471-1.471z"></path>
      <path stroke-linejoin="round" stroke-linecap="round" stroke-miterlimit="4" stroke-width="2.2069"
            d="M24.644 9.195v10.299M6.989 25.379v2.942M24.644 25.379v2.942"></path>
    </symbol>
    <symbol id="icon-fridge" viewBox="0 0 32 32">
      <path
        d="M15.715 0h-0.165c-2.704 0-4.846 0-6.522 0.225-1.724 0.232-3.121 0.721-4.223 1.821-1.101 1.102-1.589 2.498-1.821 4.223-0.225 1.677-0.225 3.818-0.225 6.522v4.579c0 2.704 0 4.846 0.225 6.522 0.232 1.724 0.721 3.121 1.821 4.223 0.677 0.675 1.462 1.12 2.367 1.417v0.998c0 0.609 0.494 1.103 1.103 1.103h1.471c0.293 0 0.573-0.116 0.78-0.323s0.323-0.488 0.323-0.78v-0.436c1.334 0.068 2.891 0.068 4.699 0.068h0.165c1.81 0 3.365 0 4.699-0.068v0.436c0 0.609 0.494 1.103 1.103 1.103h1.471c0.293 0 0.573-0.116 0.78-0.323s0.323-0.488 0.323-0.78v-0.998c0.905-0.297 1.692-0.742 2.367-1.417 1.1-1.102 1.589-2.498 1.821-4.223 0.225-1.677 0.225-3.818 0.225-6.522v-4.577c0-2.704 0-4.846-0.225-6.522-0.232-1.724-0.721-3.121-1.821-4.223-1.102-1.101-2.498-1.589-4.223-1.821-1.677-0.225-3.818-0.225-6.522-0.225zM6.366 3.608c0.622-0.622 1.476-0.996 2.956-1.195 1.512-0.203 3.505-0.206 6.31-0.206s4.799 0.003 6.312 0.206c1.479 0.199 2.332 0.572 2.954 1.195s0.996 1.476 1.195 2.956c0.203 1.512 0.206 3.505 0.206 6.31v1.103h-21.333v-1.103c0-2.806 0.003-4.798 0.206-6.312 0.199-1.479 0.572-2.332 1.195-2.954zM4.966 16.184h21.333v1.103c0 2.806-0.003 4.799-0.206 6.312-0.199 1.479-0.572 2.332-1.195 2.954s-1.476 0.996-2.956 1.195c-1.512 0.203-3.505 0.206-6.31 0.206s-4.798-0.003-6.312-0.206c-1.479-0.199-2.332-0.572-2.954-1.195s-0.996-1.476-1.195-2.956c-0.203-1.511-0.206-3.505-0.206-6.31v-1.103z"></path>
    </symbol>
    <symbol id="icon-bi_grid-3x3" viewBox="0 0 32 32">
      <path
        d="M6.857 2.286v4.571h-4.571v-4.571h4.571zM9.143 29.714v-4.571c0-0.606-0.241-1.188-0.669-1.616s-1.010-0.669-1.616-0.669h-4.571c-0.606 0-1.188 0.241-1.616 0.669s-0.669 1.010-0.669 1.616v4.571c0 0.606 0.241 1.188 0.669 1.616s1.010 0.669 1.616 0.669h4.571c0.606 0 1.188-0.241 1.616-0.669s0.669-1.010 0.669-1.616zM9.143 18.286v-4.571c0-0.606-0.241-1.188-0.669-1.616s-1.010-0.669-1.616-0.669h-4.571c-0.606 0-1.188 0.241-1.616 0.669s-0.669 1.010-0.669 1.616v4.571c0 0.606 0.241 1.188 0.669 1.616s1.010 0.669 1.616 0.669h4.571c0.606 0 1.188-0.241 1.616-0.669s0.669-1.010 0.669-1.616zM9.143 6.857v-4.571c0-0.606-0.241-1.188-0.669-1.616s-1.010-0.669-1.616-0.669h-4.571c-0.606 0-1.188 0.241-1.616 0.669s-0.669 1.010-0.669 1.616v4.571c0 0.606 0.241 1.188 0.669 1.616s1.010 0.669 1.616 0.669h4.571c0.606 0 1.188-0.241 1.616-0.669s0.669-1.010 0.669-1.616zM20.571 29.714v-4.571c0-0.606-0.241-1.188-0.669-1.616s-1.010-0.669-1.616-0.669h-4.571c-0.606 0-1.188 0.241-1.616 0.669s-0.669 1.010-0.669 1.616v4.571c0 0.606 0.241 1.188 0.669 1.616s1.010 0.669 1.616 0.669h4.571c0.606 0 1.188-0.241 1.616-0.669s0.669-1.010 0.669-1.616zM20.571 18.286v-4.571c0-0.606-0.241-1.188-0.669-1.616s-1.010-0.669-1.616-0.669h-4.571c-0.606 0-1.188 0.241-1.616 0.669s-0.669 1.010-0.669 1.616v4.571c0 0.606 0.241 1.188 0.669 1.616s1.010 0.669 1.616 0.669h4.571c0.606 0 1.188-0.241 1.616-0.669s0.669-1.010 0.669-1.616zM20.571 6.857v-4.571c0-0.606-0.241-1.188-0.669-1.616s-1.010-0.669-1.616-0.669h-4.571c-0.606 0-1.188 0.241-1.616 0.669s-0.669 1.010-0.669 1.616v4.571c0 0.606 0.241 1.188 0.669 1.616s1.010 0.669 1.616 0.669h4.571c0.606 0 1.188-0.241 1.616-0.669s0.669-1.010 0.669-1.616zM18.286 2.286v4.571h-4.571v-4.571h4.571zM29.714 2.286v4.571h-4.571v-4.571h4.571zM6.857 13.714v4.571h-4.571v-4.571h4.571zM18.286 13.714v4.571h-4.571v-4.571h4.571zM29.714 13.714h-4.571v4.571h4.571v-4.571zM6.857 25.143v4.571h-4.571v-4.571h4.571zM18.286 25.143v4.571h-4.571v-4.571h4.571zM29.714 25.143v4.571h-4.571v-4.571h4.571zM25.143 0c-0.606 0-1.188 0.241-1.616 0.669s-0.669 1.010-0.669 1.616v4.571c0 0.606 0.241 1.188 0.669 1.616s1.010 0.669 1.616 0.669h4.571c0.606 0 1.188-0.241 1.616-0.669s0.669-1.010 0.669-1.616v-4.571c0-0.606-0.241-1.188-0.669-1.616s-1.010-0.669-1.616-0.669h-4.571zM22.857 13.714c0-0.606 0.241-1.188 0.669-1.616s1.010-0.669 1.616-0.669h4.571c0.606 0 1.188 0.241 1.616 0.669s0.669 1.010 0.669 1.616v4.571c0 0.606-0.241 1.188-0.669 1.616s-1.010 0.669-1.616 0.669h-4.571c-0.606 0-1.188-0.241-1.616-0.669s-0.669-1.010-0.669-1.616v-4.571zM25.143 22.857c-0.606 0-1.188 0.241-1.616 0.669s-0.669 1.010-0.669 1.616v4.571c0 0.606 0.241 1.188 0.669 1.616s1.010 0.669 1.616 0.669h4.571c0.606 0 1.188-0.241 1.616-0.669s0.669-1.010 0.669-1.616v-4.571c0-0.606-0.241-1.188-0.669-1.616s-1.010-0.669-1.616-0.669h-4.571z"></path>
    </symbol>
    <symbol id="icon-bi_grid" viewBox="0 0 32 32">
      <path
        d="M0 3.429c0-0.909 0.361-1.781 1.004-2.424s1.515-1.004 2.424-1.004h6.857c0.909 0 1.781 0.361 2.424 1.004s1.004 1.515 1.004 2.424v6.857c0 0.909-0.361 1.781-1.004 2.424s-1.515 1.004-2.424 1.004h-6.857c-0.909 0-1.781-0.361-2.424-1.004s-1.004-1.515-1.004-2.424v-6.857zM3.429 2.286c-0.303 0-0.594 0.12-0.808 0.335s-0.335 0.505-0.335 0.808v6.857c0 0.303 0.12 0.594 0.335 0.808s0.505 0.335 0.808 0.335h6.857c0.303 0 0.594-0.12 0.808-0.335s0.335-0.505 0.335-0.808v-6.857c0-0.303-0.12-0.594-0.335-0.808s-0.505-0.335-0.808-0.335h-6.857zM18.286 3.429c0-0.909 0.361-1.781 1.004-2.424s1.515-1.004 2.424-1.004h6.857c0.909 0 1.781 0.361 2.424 1.004s1.004 1.515 1.004 2.424v6.857c0 0.909-0.361 1.781-1.004 2.424s-1.515 1.004-2.424 1.004h-6.857c-0.909 0-1.781-0.361-2.424-1.004s-1.004-1.515-1.004-2.424v-6.857zM21.714 2.286c-0.303 0-0.594 0.12-0.808 0.335s-0.335 0.505-0.335 0.808v6.857c0 0.303 0.12 0.594 0.335 0.808s0.505 0.335 0.808 0.335h6.857c0.303 0 0.594-0.12 0.808-0.335s0.335-0.505 0.335-0.808v-6.857c0-0.303-0.12-0.594-0.335-0.808s-0.505-0.335-0.808-0.335h-6.857zM0 21.714c0-0.909 0.361-1.781 1.004-2.424s1.515-1.004 2.424-1.004h6.857c0.909 0 1.781 0.361 2.424 1.004s1.004 1.515 1.004 2.424v6.857c0 0.909-0.361 1.781-1.004 2.424s-1.515 1.004-2.424 1.004h-6.857c-0.909 0-1.781-0.361-2.424-1.004s-1.004-1.515-1.004-2.424v-6.857zM3.429 20.571c-0.303 0-0.594 0.12-0.808 0.335s-0.335 0.505-0.335 0.808v6.857c0 0.303 0.12 0.594 0.335 0.808s0.505 0.335 0.808 0.335h6.857c0.303 0 0.594-0.12 0.808-0.335s0.335-0.505 0.335-0.808v-6.857c0-0.303-0.12-0.594-0.335-0.808s-0.505-0.335-0.808-0.335h-6.857zM18.286 21.714c0-0.909 0.361-1.781 1.004-2.424s1.515-1.004 2.424-1.004h6.857c0.909 0 1.781 0.361 2.424 1.004s1.004 1.515 1.004 2.424v6.857c0 0.909-0.361 1.781-1.004 2.424s-1.515 1.004-2.424 1.004h-6.857c-0.909 0-1.781-0.361-2.424-1.004s-1.004-1.515-1.004-2.424v-6.857zM21.714 20.571c-0.303 0-0.594 0.12-0.808 0.335s-0.335 0.505-0.335 0.808v6.857c0 0.303 0.12 0.594 0.335 0.808s0.505 0.335 0.808 0.335h6.857c0.303 0 0.594-0.12 0.808-0.335s0.335-0.505 0.335-0.808v-6.857c0-0.303-0.12-0.594-0.335-0.808s-0.505-0.335-0.808-0.335h-6.857z"></path>
    </symbol>
    <symbol id="icon-bi_grid-1x2" viewBox="0 0 32 32">
      <path
        d="M12 2h-10v28h10v-28zM30 2h-10v10h10v-10zM30 20v10h-10v-10h10zM0 2c0-0.53 0.211-1.039 0.586-1.414s0.884-0.586 1.414-0.586h10c0.53 0 1.039 0.211 1.414 0.586s0.586 0.884 0.586 1.414v28c0 0.53-0.211 1.039-0.586 1.414s-0.884 0.586-1.414 0.586h-10c-0.53 0-1.039-0.211-1.414-0.586s-0.586-0.884-0.586-1.414v-28zM18 2c0-0.53 0.211-1.039 0.586-1.414s0.884-0.586 1.414-0.586h10c0.53 0 1.039 0.211 1.414 0.586s0.586 0.884 0.586 1.414v10c0 0.53-0.211 1.039-0.586 1.414s-0.884 0.586-1.414 0.586h-10c-0.53 0-1.039-0.211-1.414-0.586s-0.586-0.884-0.586-1.414v-10zM20 18c-0.53 0-1.039 0.211-1.414 0.586s-0.586 0.884-0.586 1.414v10c0 0.53 0.211 1.039 0.586 1.414s0.884 0.586 1.414 0.586h10c0.53 0 1.039-0.211 1.414-0.586s0.586-0.884 0.586-1.414v-10c0-0.53-0.211-1.039-0.586-1.414s-0.884-0.586-1.414-0.586h-10z"></path>
    </symbol>
    <symbol id="icon-shower" viewBox="0 0 32 32">
      <path
        d="M7.226 28.387c0 0.306-0.091 0.606-0.261 0.86s-0.412 0.453-0.695 0.57-0.594 0.148-0.895 0.088c-0.3-0.060-0.576-0.207-0.793-0.424s-0.364-0.492-0.424-0.793c-0.060-0.3-0.029-0.612 0.088-0.895s0.316-0.525 0.57-0.695c0.255-0.17 0.554-0.261 0.86-0.261 0.411 0 0.804 0.163 1.095 0.453s0.454 0.684 0.454 1.095zM9.806 22.71c-0.306 0-0.606 0.091-0.86 0.261s-0.453 0.412-0.57 0.695c-0.117 0.283-0.148 0.594-0.088 0.895s0.207 0.576 0.424 0.793c0.217 0.216 0.492 0.364 0.793 0.424s0.612 0.029 0.895-0.088c0.283-0.117 0.525-0.316 0.695-0.57s0.261-0.554 0.261-0.86c0-0.411-0.163-0.805-0.453-1.095s-0.684-0.453-1.095-0.453zM1.548 22.71c-0.306 0-0.606 0.091-0.86 0.261s-0.453 0.412-0.57 0.695c-0.117 0.283-0.148 0.594-0.088 0.895s0.207 0.576 0.424 0.793c0.217 0.216 0.492 0.364 0.793 0.424s0.612 0.029 0.895-0.088c0.283-0.117 0.525-0.316 0.695-0.57s0.261-0.554 0.261-0.86c0-0.411-0.163-0.805-0.454-1.095s-0.684-0.453-1.095-0.453zM5.677 18.581c-0.306 0-0.606 0.091-0.86 0.261s-0.453 0.412-0.57 0.695c-0.117 0.283-0.148 0.594-0.088 0.895s0.207 0.576 0.424 0.793c0.217 0.216 0.492 0.364 0.793 0.424s0.612 0.029 0.895-0.088c0.283-0.117 0.525-0.316 0.695-0.57s0.261-0.554 0.261-0.86c0-0.411-0.163-0.805-0.454-1.095s-0.684-0.453-1.095-0.453zM32 3.097c0 0.274-0.109 0.536-0.302 0.73s-0.456 0.302-0.73 0.302h-3.702l-3.593 3.595-2.795 16.36c-0.063 0.374-0.227 0.723-0.476 1.009s-0.571 0.499-0.932 0.614c-0.361 0.115-0.747 0.129-1.115 0.040s-0.705-0.278-0.973-0.546l-12.645-12.645c-0.268-0.268-0.458-0.605-0.547-0.974s-0.075-0.755 0.041-1.116c0.116-0.361 0.329-0.684 0.616-0.932s0.637-0.412 1.011-0.474l16.354-2.796 3.897-3.897c0.096-0.096 0.21-0.172 0.335-0.224s0.26-0.078 0.395-0.078h4.129c0.274 0 0.536 0.109 0.73 0.302s0.302 0.456 0.302 0.73zM21.447 8.489l-15.253 2.608 12.645 12.645 2.608-15.253z"></path>
    </symbol>
    <symbol id="icon-cup-hot" viewBox="0 0 32 32">
      <path
        d="M1 12c-0.15 0-0.297 0.034-0.432 0.098s-0.254 0.159-0.347 0.276c-0.094 0.117-0.16 0.253-0.194 0.399s-0.035 0.297-0.003 0.443l3.304 14.868c0.247 1.11 0.865 2.104 1.752 2.816s1.991 1.1 3.128 1.1h11.584c1.138-0 2.241-0.388 3.128-1.1s1.505-1.705 1.752-2.816l0.262-1.18c1.53 0.286 3.111-0.033 4.41-0.891s2.213-2.186 2.551-3.706c0.337-1.519 0.071-3.11-0.742-4.437s-2.111-2.285-3.618-2.674l0.442-1.98c0.032-0.146 0.031-0.298-0.003-0.443s-0.1-0.282-0.194-0.399c-0.094-0.117-0.212-0.211-0.347-0.276s-0.283-0.098-0.432-0.098h-26zM26 25c-0.212 0-0.423-0.017-0.632-0.050l1.734-7.796c0.925 0.268 1.722 0.86 2.246 1.669s0.738 1.778 0.604 2.732c-0.134 0.954-0.607 1.827-1.333 2.46s-1.656 0.983-2.619 0.985zM5.28 27.65l-3.034-13.65h23.508l-3.034 13.65c-0.148 0.666-0.519 1.262-1.051 1.69s-1.195 0.66-1.877 0.66h-11.584c-0.683-0-1.345-0.233-1.877-0.66s-0.903-1.023-1.051-1.69z"></path>
      <path
        d="M8.8 1.6l-0.006 0.008-0.028 0.038c-0.146 0.2-0.282 0.407-0.408 0.62-0.107 0.171-0.202 0.349-0.282 0.534-0.052 0.12-0.068 0.184-0.074 0.206v0.008c0.023 0.177 0.085 0.346 0.182 0.496 0.15 0.266 0.356 0.544 0.616 0.89l0.020 0.024c0.236 0.316 0.52 0.694 0.74 1.086 0.224 0.4 0.44 0.91 0.44 1.49 0 0.376-0.13 0.736-0.238 0.988-0.116 0.268-0.251 0.527-0.404 0.776-0.157 0.262-0.326 0.517-0.506 0.764l-0.036 0.050-0.010 0.016-0.004 0.004c-0.159 0.212-0.396 0.353-0.658 0.391s-0.529-0.030-0.742-0.189c-0.212-0.159-0.353-0.396-0.391-0.658s0.030-0.529 0.189-0.742l0.006-0.008 0.028-0.038c0.146-0.2 0.282-0.407 0.408-0.62 0.107-0.171 0.202-0.349 0.282-0.534 0.052-0.12 0.068-0.184 0.074-0.206-0.021-0.179-0.083-0.352-0.18-0.504-0.186-0.31-0.392-0.608-0.618-0.89l-0.020-0.024c-0.27-0.345-0.517-0.708-0.74-1.086-0.272-0.451-0.424-0.964-0.44-1.49 0-0.376 0.13-0.736 0.238-0.988 0.118-0.276 0.268-0.548 0.404-0.776 0.159-0.261 0.328-0.516 0.506-0.764l0.050-0.070c0.159-0.212 0.396-0.353 0.658-0.391s0.529 0.030 0.742 0.189c0.212 0.159 0.353 0.396 0.391 0.658s-0.030 0.529-0.189 0.742zM14.8 1.6l-0.006 0.008-0.028 0.038c-0.146 0.2-0.282 0.407-0.408 0.62-0.107 0.171-0.202 0.349-0.282 0.534-0.052 0.12-0.068 0.184-0.074 0.206v0.008c0.023 0.177 0.085 0.346 0.182 0.496 0.15 0.266 0.356 0.544 0.616 0.89l0.020 0.024c0.236 0.316 0.52 0.694 0.74 1.086 0.224 0.4 0.44 0.91 0.44 1.49 0 0.376-0.13 0.736-0.238 0.988-0.116 0.268-0.251 0.527-0.404 0.776-0.157 0.262-0.326 0.517-0.506 0.764l-0.036 0.050-0.010 0.016-0.004 0.004c-0.159 0.212-0.396 0.353-0.658 0.391s-0.529-0.030-0.742-0.189-0.353-0.396-0.391-0.658c-0.038-0.263 0.030-0.529 0.189-0.742l0.006-0.008 0.028-0.038c0.146-0.2 0.282-0.407 0.408-0.62 0.107-0.171 0.202-0.349 0.282-0.534 0.052-0.12 0.068-0.184 0.074-0.206-0.021-0.179-0.083-0.352-0.18-0.504-0.186-0.31-0.392-0.608-0.618-0.89l-0.020-0.024c-0.27-0.345-0.517-0.708-0.74-1.086-0.272-0.451-0.424-0.964-0.44-1.49 0-0.376 0.13-0.736 0.238-0.988 0.118-0.276 0.268-0.548 0.404-0.776 0.159-0.261 0.328-0.516 0.506-0.764l0.050-0.070c0.159-0.212 0.396-0.353 0.658-0.391s0.529 0.030 0.742 0.189 0.353 0.396 0.391 0.658c0.038 0.263-0.030 0.529-0.189 0.742zM20.8 1.6l-0.006 0.008-0.028 0.038c-0.145 0.2-0.282 0.407-0.408 0.62-0.107 0.171-0.202 0.349-0.282 0.534-0.052 0.12-0.068 0.184-0.074 0.206v0.008c0.023 0.177 0.085 0.346 0.182 0.496 0.15 0.266 0.356 0.544 0.616 0.89l0.020 0.024c0.236 0.316 0.52 0.694 0.74 1.086 0.224 0.4 0.44 0.91 0.44 1.49 0 0.376-0.13 0.736-0.238 0.988-0.116 0.268-0.251 0.527-0.404 0.776-0.156 0.262-0.324 0.517-0.504 0.764l-0.038 0.050-0.010 0.016-0.004 0.004c-0.159 0.212-0.396 0.353-0.658 0.391s-0.529-0.030-0.742-0.189-0.353-0.396-0.391-0.658c-0.038-0.263 0.030-0.529 0.189-0.742l0.006-0.008 0.028-0.038c0.145-0.2 0.282-0.407 0.408-0.62 0.107-0.171 0.202-0.349 0.282-0.534 0.052-0.12 0.068-0.184 0.074-0.206-0.021-0.179-0.083-0.352-0.18-0.504-0.186-0.31-0.392-0.608-0.618-0.89l-0.020-0.024c-0.27-0.345-0.517-0.708-0.74-1.086-0.272-0.451-0.424-0.964-0.44-1.49 0-0.376 0.13-0.736 0.238-0.988 0.118-0.276 0.268-0.548 0.404-0.776 0.159-0.261 0.328-0.516 0.506-0.764l0.050-0.070c0.159-0.212 0.396-0.353 0.658-0.391s0.529 0.030 0.742 0.189 0.353 0.396 0.391 0.658c0.038 0.263-0.030 0.529-0.189 0.742z"></path>
    </symbol>
    <symbol id="icon-diagram" viewBox="0 0 32 32">
      <path
        d="M12 7c0-0.796 0.316-1.559 0.879-2.121s1.326-0.879 2.121-0.879h2c0.796 0 1.559 0.316 2.121 0.879s0.879 1.326 0.879 2.121v2c0 0.796-0.316 1.559-0.879 2.121s-1.326 0.879-2.121 0.879v2h11c0.265 0 0.52 0.105 0.707 0.293s0.293 0.442 0.293 0.707v2c0 0.265-0.105 0.52-0.293 0.707s-0.442 0.293-0.707 0.293c-0.265 0-0.52-0.105-0.707-0.293s-0.293-0.442-0.293-0.707v-1h-10v1c0 0.265-0.105 0.52-0.293 0.707s-0.442 0.293-0.707 0.293c-0.265 0-0.52-0.105-0.707-0.293s-0.293-0.442-0.293-0.707v-1h-10v1c0 0.265-0.105 0.52-0.293 0.707s-0.442 0.293-0.707 0.293c-0.265 0-0.52-0.105-0.707-0.293s-0.293-0.442-0.293-0.707v-2c0-0.265 0.105-0.52 0.293-0.707s0.442-0.293 0.707-0.293h11v-2c-0.796 0-1.559-0.316-2.121-0.879s-0.879-1.326-0.879-2.121v-2zM17 10c0.265 0 0.52-0.105 0.707-0.293s0.293-0.442 0.293-0.707v-2c0-0.265-0.105-0.52-0.293-0.707s-0.442-0.293-0.707-0.293h-2c-0.265 0-0.52 0.105-0.707 0.293s-0.293 0.442-0.293 0.707v2c0 0.265 0.105 0.52 0.293 0.707s0.442 0.293 0.707 0.293h2zM0 23c0-0.796 0.316-1.559 0.879-2.121s1.326-0.879 2.121-0.879h2c0.796 0 1.559 0.316 2.121 0.879s0.879 1.326 0.879 2.121v2c0 0.796-0.316 1.559-0.879 2.121s-1.326 0.879-2.121 0.879h-2c-0.796 0-1.559-0.316-2.121-0.879s-0.879-1.326-0.879-2.121v-2zM3 22c-0.265 0-0.52 0.105-0.707 0.293s-0.293 0.442-0.293 0.707v2c0 0.265 0.105 0.52 0.293 0.707s0.442 0.293 0.707 0.293h2c0.265 0 0.52-0.105 0.707-0.293s0.293-0.442 0.293-0.707v-2c0-0.265-0.105-0.52-0.293-0.707s-0.442-0.293-0.707-0.293h-2zM12 23c0-0.796 0.316-1.559 0.879-2.121s1.326-0.879 2.121-0.879h2c0.796 0 1.559 0.316 2.121 0.879s0.879 1.326 0.879 2.121v2c0 0.796-0.316 1.559-0.879 2.121s-1.326 0.879-2.121 0.879h-2c-0.796 0-1.559-0.316-2.121-0.879s-0.879-1.326-0.879-2.121v-2zM15 22c-0.265 0-0.52 0.105-0.707 0.293s-0.293 0.442-0.293 0.707v2c0 0.265 0.105 0.52 0.293 0.707s0.442 0.293 0.707 0.293h2c0.265 0 0.52-0.105 0.707-0.293s0.293-0.442 0.293-0.707v-2c0-0.265-0.105-0.52-0.293-0.707s-0.442-0.293-0.707-0.293h-2zM24 23c0-0.796 0.316-1.559 0.879-2.121s1.326-0.879 2.121-0.879h2c0.796 0 1.559 0.316 2.121 0.879s0.879 1.326 0.879 2.121v2c0 0.796-0.316 1.559-0.879 2.121s-1.326 0.879-2.121 0.879h-2c-0.796 0-1.559-0.316-2.121-0.879s-0.879-1.326-0.879-2.121v-2zM27 22c-0.265 0-0.52 0.105-0.707 0.293s-0.293 0.442-0.293 0.707v2c0 0.265 0.105 0.52 0.293 0.707s0.442 0.293 0.707 0.293h2c0.265 0 0.52-0.105 0.707-0.293s0.293-0.442 0.293-0.707v-2c0-0.265-0.105-0.52-0.293-0.707s-0.442-0.293-0.707-0.293h-2z"></path>
    </symbol>
    <symbol id="icon-wind" viewBox="0 0 32 32">
      <path
        d="M25 4c-1.326 0-2.598 0.527-3.535 1.464s-1.465 2.209-1.465 3.536c0 0.265-0.105 0.52-0.293 0.707s-0.442 0.293-0.707 0.293c-0.265 0-0.52-0.105-0.707-0.293s-0.293-0.442-0.293-0.707c0-1.384 0.41-2.738 1.18-3.889s1.862-2.048 3.142-2.578c1.279-0.53 2.687-0.668 4.044-0.398s2.605 0.937 3.584 1.916c0.979 0.979 1.646 2.226 1.916 3.584s0.131 2.765-0.398 4.044c-0.53 1.279-1.427 2.372-2.578 3.142s-2.505 1.18-3.889 1.18h-24c-0.265 0-0.52-0.105-0.707-0.293s-0.293-0.442-0.293-0.707c0-0.265 0.105-0.52 0.293-0.707s0.442-0.293 0.707-0.293h24c1.326 0 2.598-0.527 3.535-1.464s1.465-2.209 1.465-3.536-0.527-2.598-1.465-3.536c-0.938-0.938-2.209-1.464-3.535-1.464zM11 6c-0.53 0-1.039 0.211-1.414 0.586s-0.586 0.884-0.586 1.414c0 0.265-0.105 0.52-0.293 0.707s-0.442 0.293-0.707 0.293c-0.265 0-0.52-0.105-0.707-0.293s-0.293-0.442-0.293-0.707c0-0.791 0.235-1.564 0.674-2.222s1.064-1.17 1.795-1.473c0.731-0.303 1.535-0.382 2.311-0.228s1.489 0.535 2.048 1.095 0.94 1.272 1.095 2.048c0.154 0.776 0.075 1.58-0.228 2.311s-0.815 1.356-1.473 1.795-1.431 0.674-2.222 0.674h-10c-0.265 0-0.52-0.105-0.707-0.293s-0.293-0.442-0.293-0.707c0-0.265 0.105-0.52 0.293-0.707s0.442-0.293 0.707-0.293h10c0.53 0 1.039-0.211 1.414-0.586s0.586-0.884 0.586-1.414c0-0.53-0.211-1.039-0.586-1.414s-0.884-0.586-1.414-0.586zM0 19c0-0.265 0.105-0.52 0.293-0.707s0.442-0.293 0.707-0.293h20.084c1.187 0 2.347 0.352 3.333 1.011s1.756 1.596 2.21 2.693c0.454 1.096 0.573 2.303 0.341 3.467s-0.803 2.233-1.642 3.072c-0.839 0.839-1.908 1.411-3.072 1.642s-2.37 0.113-3.467-0.341-2.033-1.223-2.693-2.21c-0.659-0.987-1.011-2.147-1.011-3.333 0-0.265 0.105-0.52 0.293-0.707s0.442-0.293 0.707-0.293c0.265 0 0.52 0.105 0.707 0.293s0.293 0.442 0.293 0.707c0 0.791 0.235 1.564 0.674 2.222s1.064 1.171 1.795 1.473c0.731 0.303 1.535 0.382 2.311 0.228s1.489-0.535 2.048-1.095 0.94-1.272 1.095-2.048c0.154-0.776 0.075-1.58-0.228-2.311s-0.815-1.356-1.473-1.795c-0.658-0.439-1.431-0.674-2.222-0.674h-20.084c-0.265 0-0.52-0.105-0.707-0.293s-0.293-0.442-0.293-0.707z"></path>
    </symbol>
    <symbol id="icon-tv" viewBox="0 0 32 32">
      <path
        d="M0 7.5c0 0 0-4 4-4h24c0 0 4 0 4 4v12c0 0 0 4-4 4h-8c0 1.333 0.167 2.333 0.5 3h1.5c0.265 0 0.52 0.105 0.707 0.293s0.293 0.442 0.293 0.707c0 0.265-0.105 0.52-0.293 0.707s-0.442 0.293-0.707 0.293h-12c-0.265 0-0.52-0.105-0.707-0.293s-0.293-0.442-0.293-0.707c0-0.265 0.105-0.52 0.293-0.707s0.442-0.293 0.707-0.293h1.5c0.333-0.667 0.5-1.667 0.5-3h-8c0 0-4 0-4-4v-12zM2.796 5.79c-0.22 0.153-0.395 0.361-0.508 0.604-0.168 0.353-0.266 0.735-0.288 1.126v11.98c0 0.65 0.156 1.004 0.29 1.204 0.14 0.208 0.341 0.377 0.604 0.508 0.338 0.162 0.703 0.259 1.076 0.286l0.050 0.002h23.98c0.65 0 1.004-0.156 1.204-0.29 0.22-0.153 0.395-0.361 0.508-0.604 0.162-0.338 0.259-0.703 0.286-1.076l0.002-0.050v-11.98c0-0.65-0.156-1.004-0.29-1.204-0.153-0.22-0.361-0.395-0.604-0.508-0.353-0.168-0.736-0.266-1.126-0.288h-23.98c-0.65 0-1.004 0.156-1.204 0.29z"></path>
    </symbol>
  </defs>
</svg>
